#N canvas 20 50 1211 411 10;
#X msg 426 359 disconnect;
#X obj 414 383 netsend -u -b;
#X obj 414 309 list prepend send;
#X obj 414 334 list trim;
#X msg 507 359 connect localhost 5005;
#X obj 215 46 vsl 15 100 -60 12 0 0 empty empty empty 0 -9 0 10 -262144
-1 -1 0 1;
#X obj 215 178 oscformat -f f generator volume;
#X obj 507 339 loadbang;
#X text 238 129 toggle;
#X text 371 130 on;
#X text 312 130 off;
#X msg 278 129 -1;
#X obj 278 154 oscformat generator mute;
#X msg 334 130 0;
#X msg 387 130 1;
#X text 733 29 toggle;
#X text 866 30 on;
#X text 807 30 off;
#X msg 773 29 -1;
#X msg 829 30 0;
#X msg 882 30 1;
#X obj 773 54 oscformat renderer crossfade;
#X obj 712 236 oscformat tracker zero;
#X obj 711 214 bng 15 250 50 0 empty empty empty 17 7 0 10 -262144
-1 -1;
#X floatatom 215 156 5 0 0 0 - - -;
#X obj 8 214 bng 15 250 50 0 empty empty empty 17 7 0 10 -262144 -1
-1;
#X obj 147 213 bng 15 250 50 0 empty empty empty 17 7 0 10 -262144
-1 -1;
#X obj 9 236 oscformat player play;
#X obj 148 235 oscformat player stop;
#X obj 967 213 bng 15 250 50 0 empty empty empty 17 7 0 10 -262144
-1 -1;
#X obj 968 235 oscformat quit;
#X obj 436 46 vsl 15 100 -60 12 0 0 empty empty empty 0 -9 0 10 -262144
-1 -1 0 1;
#X text 459 129 toggle;
#X text 592 130 on;
#X text 533 130 off;
#X msg 499 129 -1;
#X msg 555 130 0;
#X msg 608 130 1;
#X floatatom 436 156 5 0 0 0 - - -;
#X obj 499 154 oscformat prerenderer mute;
#X obj 436 178 oscformat -f f prerenderer volume;
#X text 459 78 toggle;
#X text 592 79 on;
#X text 533 79 off;
#X msg 499 78 -1;
#X msg 555 79 0;
#X msg 608 79 1;
#X obj 499 103 oscformat prerenderer passthrough;
#X obj 710 47 vsl 15 100 -60 12 0 0 empty empty empty 0 -9 0 10 -262144
-1 -1 0 1;
#X text 733 130 toggle;
#X text 866 131 on;
#X text 807 131 off;
#X msg 773 130 -1;
#X msg 829 131 0;
#X msg 882 131 1;
#X floatatom 710 157 5 0 0 0 - - -;
#X text 733 79 toggle;
#X text 866 80 on;
#X text 807 80 off;
#X msg 773 79 -1;
#X msg 829 80 0;
#X msg 882 80 1;
#X obj 773 104 oscformat renderer passthrough;
#X obj 773 155 oscformat renderer mute;
#X obj 710 179 oscformat -f f renderer volume;
#X obj 967 47 vsl 15 100 -60 12 0 0 empty empty empty 0 -9 0 10 -262144
-1 -1 0 1;
#X text 990 130 toggle;
#X text 1123 131 on;
#X text 1064 131 off;
#X msg 1030 130 -1;
#X msg 1086 131 0;
#X msg 1139 131 1;
#X floatatom 967 157 5 0 0 0 - - -;
#X text 990 79 toggle;
#X text 1123 80 on;
#X text 1064 80 off;
#X msg 1030 79 -1;
#X msg 1086 80 0;
#X msg 1139 80 1;
#X obj 1030 104 oscformat hpeq passthrough;
#X obj 1030 155 oscformat hpeq mute;
#X obj 967 179 oscformat -f f hpeq volume;
#X obj 9 46 vsl 15 100 -60 12 0 0 empty empty empty 0 -9 0 10 -262144
-1 -1 0 1;
#X text 32 129 toggle;
#X text 165 130 on;
#X text 106 130 off;
#X msg 72 129 -1;
#X msg 128 130 0;
#X msg 181 130 1;
#X floatatom 9 156 5 0 0 0 - - -;
#X obj 9 178 oscformat -f f player volume;
#X obj 72 154 oscformat player mute;
#X text 8 368 Currently file playback can not be restarted (after playthrough
was finished) over OSC.;
#X text 6 6 Requires OSC externals: https://puredata.info/downloads/osc
;
#X text 649 360 OSC port adjustable in config;
#X obj 685 150 vsl 15 100 -180 180 0 0 empty empty empty 0 -9 0 10
-262144 -1 -1 0 1;
#X floatatom 685 260 5 0 0 0 - - -;
#X obj 685 282 oscformat -f f tracker azimuth;
#X msg 725 260 0;
#X msg 760 260 40;
#X msg 795 260 80;
#X msg 831 260 120;
#X msg 867 260 160;
#X text 890 348 Commands are available depending on the rendering configuration
and mode. Target client names are derived from JACK client names. while
the order of target client and command can be altered.;
#X connect 0 0 1 0;
#X connect 2 0 3 0;
#X connect 3 0 1 0;
#X connect 4 0 1 0;
#X connect 5 0 24 0;
#X connect 6 0 2 0;
#X connect 7 0 4 0;
#X connect 11 0 12 0;
#X connect 12 0 2 0;
#X connect 13 0 12 0;
#X connect 14 0 12 0;
#X connect 18 0 21 0;
#X connect 19 0 21 0;
#X connect 20 0 21 0;
#X connect 21 0 2 0;
#X connect 22 0 2 0;
#X connect 23 0 22 0;
#X connect 24 0 6 0;
#X connect 25 0 27 0;
#X connect 26 0 28 0;
#X connect 27 0 2 0;
#X connect 28 0 2 0;
#X connect 29 0 30 0;
#X connect 30 0 2 0;
#X connect 31 0 38 0;
#X connect 35 0 39 0;
#X connect 36 0 39 0;
#X connect 37 0 39 0;
#X connect 38 0 40 0;
#X connect 39 0 2 0;
#X connect 40 0 2 0;
#X connect 44 0 47 0;
#X connect 45 0 47 0;
#X connect 46 0 47 0;
#X connect 47 0 2 0;
#X connect 48 0 55 0;
#X connect 52 0 63 0;
#X connect 53 0 63 0;
#X connect 54 0 63 0;
#X connect 55 0 64 0;
#X connect 59 0 62 0;
#X connect 60 0 62 0;
#X connect 61 0 62 0;
#X connect 62 0 2 0;
#X connect 63 0 2 0;
#X connect 64 0 2 0;
#X connect 65 0 72 0;
#X connect 69 0 80 0;
#X connect 70 0 80 0;
#X connect 71 0 80 0;
#X connect 72 0 81 0;
#X connect 76 0 79 0;
#X connect 77 0 79 0;
#X connect 78 0 79 0;
#X connect 79 0 2 0;
#X connect 80 0 2 0;
#X connect 81 0 2 0;
#X connect 82 0 89 0;
#X connect 86 0 91 0;
#X connect 87 0 91 0;
#X connect 88 0 91 0;
#X connect 89 0 90 0;
#X connect 90 0 2 0;
#X connect 91 0 2 0;
#X connect 95 0 96 0;
#X connect 96 0 97 0;
#X connect 97 0 2 0;
#X connect 98 0 97 0;
#X connect 99 0 97 0;
#X connect 100 0 97 0;
#X connect 101 0 97 0;
#X connect 102 0 97 0;
