#N canvas 0 0 1440 853 10;
#X msg 426 372 disconnect;
#X obj 414 396 netsend -u -b;
#X obj 414 309 list prepend send;
#X obj 414 334 list trim;
#X obj 215 46 vsl 15 100 -60 12 0 0 empty empty empty 0 -9 0 10 -262144
-1 -1 0 1;
#X obj 215 178 oscformat -f f generator volume;
#X obj 724 307 loadbang;
#X text 238 129 toggle;
#X text 371 130 on;
#X text 312 130 off;
#X msg 278 129 -1;
#X obj 278 154 oscformat generator mute;
#X msg 334 130 0;
#X msg 387 130 1;
#X text 733 29 toggle;
#X text 866 30 on;
#X text 807 30 off;
#X msg 773 29 -1;
#X msg 829 30 0;
#X msg 882 30 1;
#X obj 773 54 oscformat renderer crossfade;
#X obj 712 236 oscformat tracker zero;
#X obj 711 214 bng 15 250 50 0 empty empty empty 17 7 0 10 -262144
-1 -1;
#X floatatom 215 156 5 0 0 0 - - -;
#X obj 8 214 bng 15 250 50 0 empty empty empty 17 7 0 10 -262144 -1
-1;
#X obj 147 213 bng 15 250 50 0 empty empty empty 17 7 0 10 -262144
-1 -1;
#X obj 9 236 oscformat player play;
#X obj 148 235 oscformat player stop;
#X obj 967 213 bng 15 250 50 0 empty empty empty 17 7 0 10 -262144
-1 -1;
#X obj 968 235 oscformat quit;
#X obj 436 46 vsl 15 100 -60 12 0 0 empty empty empty 0 -9 0 10 -262144
-1 -1 0 1;
#X text 459 129 toggle;
#X text 592 130 on;
#X text 533 130 off;
#X msg 499 129 -1;
#X msg 555 130 0;
#X msg 608 130 1;
#X floatatom 436 156 5 0 0 0 - - -;
#X obj 499 154 oscformat prerenderer mute;
#X obj 436 178 oscformat -f f prerenderer volume;
#X text 459 78 toggle;
#X text 592 79 on;
#X text 533 79 off;
#X msg 499 78 -1;
#X msg 555 79 0;
#X msg 608 79 1;
#X obj 499 103 oscformat prerenderer passthrough;
#X obj 710 47 vsl 15 100 -60 12 0 0 empty empty empty 0 -9 0 10 -262144
-1 -1 0 1;
#X text 733 130 toggle;
#X text 866 131 on;
#X text 807 131 off;
#X msg 773 130 -1;
#X msg 829 131 0;
#X msg 882 131 1;
#X floatatom 710 157 5 0 0 0 - - -;
#X text 733 79 toggle;
#X text 866 80 on;
#X text 807 80 off;
#X msg 773 79 -1;
#X msg 829 80 0;
#X msg 882 80 1;
#X obj 773 104 oscformat renderer passthrough;
#X obj 773 155 oscformat renderer mute;
#X obj 710 179 oscformat -f f renderer volume;
#X obj 967 47 vsl 15 100 -60 12 0 0 empty empty empty 0 -9 0 10 -262144
-1 -1 0 1;
#X text 990 130 toggle;
#X text 1123 131 on;
#X text 1064 131 off;
#X msg 1030 130 -1;
#X msg 1086 131 0;
#X msg 1139 131 1;
#X floatatom 967 157 5 0 0 0 - - -;
#X text 990 79 toggle;
#X text 1123 80 on;
#X text 1064 80 off;
#X msg 1030 79 -1;
#X msg 1086 80 0;
#X msg 1139 80 1;
#X obj 1030 104 oscformat hpeq passthrough;
#X obj 1030 155 oscformat hpeq mute;
#X obj 967 179 oscformat -f f hpeq volume;
#X obj 9 46 vsl 15 100 -60 12 0 0 empty empty empty 0 -9 0 10 -262144
-1 -1 0 1;
#X text 32 129 toggle;
#X text 165 130 on;
#X text 106 130 off;
#X msg 72 129 -1;
#X msg 128 130 0;
#X msg 181 130 1;
#X floatatom 9 156 5 0 0 0 - - -;
#X obj 9 178 oscformat -f f player volume;
#X obj 72 154 oscformat player mute;
#X text 8 368 Currently file playback can not be restarted (after playthrough
was finished) over OSC.;
#X text 6 6 Requires OSC externals: https://puredata.info/downloads/osc
;
#X obj 685 150 vsl 15 100 -180 180 0 0 empty empty empty 0 -9 0 10
-262144 -1 -1 0 1;
#X floatatom 685 260 5 0 0 0 - - -;
#X obj 685 282 oscformat -f f tracker azimuth;
#X msg 725 260 0;
#X msg 760 260 40;
#X msg 795 260 80;
#X msg 831 260 120;
#X msg 867 260 160;
#X text 819 344 Commands are available depending on the rendering configuration
and mode. Target client names are derived from JACK client names. while
the order of target client and command can be altered.;
#X obj 228 428 vsl 20 50 0 30 0 0 empty empty empty 0 -9 0 10 -262144
-1 -1 0 1;
#X text 249 533 toggle;
#X text 382 534 on;
#X text 323 534 off;
#X msg 289 533 -1;
#X msg 345 534 0;
#X msg 398 534 1;
#X floatatom 217 560 5 0 0 0 - - -;
#X obj 289 558 oscformat generator1 mute;
#X obj 217 582 oscformat -f f generator1 volume;
#X obj 258 465 +;
#X text 317 440 adjust stepwise;
#X msg 258 440 1;
#X msg 290 440 -1;
#X floatatom 228 489 5 0 0 0 - - -;
#X obj 217 537 +;
#X obj 228 512 t b f;
#X obj 656 397 netreceive -u -b;
#X msg 656 373 listen 0;
#X obj 656 421 oscparse;
#X obj 767 469 print unknown_command;
#X obj 656 445 list trim;
#X obj 656 469 route renderer;
#X obj 657 560 vu 15 120 empty empty -1 -8 0 10 -66577 -1 1 0;
#X obj 912 561 vu 15 120 empty empty -1 -8 0 10 -66577 -1 1 0;
#X obj 656 518 unpack f f;
#N canvas 20 0 1297 878 (subpatch) 0;
#X array RendererR 100 float 0;
#X coords 0 12 99 -30 200 100 1 0 0;
#X restore 960 559 graph;
#X obj 911 494 f;
#X obj 911 445 loadbang;
#N canvas 0 22 450 278 (subpatch) 0;
#X array RendererL 100 float 0;
#X coords 0 12 99 -30 200 100 1 0 0;
#X restore 704 559 graph;
#X obj 1048 543 tabwrite RendererR;
#X obj 792 543 tabwrite RendererL;
#X obj 941 494 + 1;
#X obj 911 469 metro 100;
#X obj 911 518 mod 100;
#X floatatom 910 713 5 0 0 0 - - -;
#X obj 910 690 f;
#X floatatom 656 711 5 0 0 0 - - -;
#X obj 656 688 f;
#X obj 909 735 loadbang;
#X obj 909 759 metro 500;
#X obj 731 518 unpack f f;
#X msg 724 329 5005;
#X obj 724 352 + 1;
#X msg 501 372 connect localhost \$1;
#X msg 724 374 listen \$1;
#X text 534 330 port can be adjusted in config;
#X obj 656 494 route rms peak load;
#X floatatom 585 602 5 0 0 0 - - -;
#N canvas 0 22 450 278 (subpatch) 0;
#X array Load 100 float 0;
#X coords 0 100 99 0 400 60 1 0 0;
#X restore 217 617 graph;
#X obj 822 518 tabwrite Load;
#X connect 0 0 1 0;
#X connect 2 0 3 0;
#X connect 3 0 1 0;
#X connect 4 0 23 0;
#X connect 5 0 2 0;
#X connect 6 0 144 0;
#X connect 10 0 11 0;
#X connect 11 0 2 0;
#X connect 12 0 11 0;
#X connect 13 0 11 0;
#X connect 17 0 20 0;
#X connect 18 0 20 0;
#X connect 19 0 20 0;
#X connect 20 0 2 0;
#X connect 21 0 2 0;
#X connect 22 0 21 0;
#X connect 23 0 5 0;
#X connect 23 0 117 0;
#X connect 24 0 26 0;
#X connect 25 0 27 0;
#X connect 26 0 2 0;
#X connect 27 0 2 0;
#X connect 28 0 29 0;
#X connect 29 0 2 0;
#X connect 30 0 37 0;
#X connect 34 0 38 0;
#X connect 35 0 38 0;
#X connect 36 0 38 0;
#X connect 37 0 39 0;
#X connect 38 0 2 0;
#X connect 39 0 2 0;
#X connect 43 0 46 0;
#X connect 44 0 46 0;
#X connect 45 0 46 0;
#X connect 46 0 2 0;
#X connect 47 0 54 0;
#X connect 51 0 62 0;
#X connect 52 0 62 0;
#X connect 53 0 62 0;
#X connect 54 0 63 0;
#X connect 58 0 61 0;
#X connect 59 0 61 0;
#X connect 60 0 61 0;
#X connect 61 0 2 0;
#X connect 62 0 2 0;
#X connect 63 0 2 0;
#X connect 64 0 71 0;
#X connect 68 0 79 0;
#X connect 69 0 79 0;
#X connect 70 0 79 0;
#X connect 71 0 80 0;
#X connect 75 0 78 0;
#X connect 76 0 78 0;
#X connect 77 0 78 0;
#X connect 78 0 2 0;
#X connect 79 0 2 0;
#X connect 80 0 2 0;
#X connect 81 0 88 0;
#X connect 85 0 90 0;
#X connect 86 0 90 0;
#X connect 87 0 90 0;
#X connect 88 0 89 0;
#X connect 89 0 2 0;
#X connect 90 0 2 0;
#X connect 93 0 94 0;
#X connect 94 0 95 0;
#X connect 95 0 2 0;
#X connect 96 0 95 0;
#X connect 97 0 95 0;
#X connect 98 0 95 0;
#X connect 99 0 95 0;
#X connect 100 0 95 0;
#X connect 102 0 116 0;
#X connect 106 0 110 0;
#X connect 107 0 110 0;
#X connect 108 0 110 0;
#X connect 109 0 111 0;
#X connect 110 0 2 0;
#X connect 111 0 2 0;
#X connect 112 0 102 0;
#X connect 114 0 112 0;
#X connect 115 0 112 0;
#X connect 116 0 112 1;
#X connect 116 0 118 0;
#X connect 117 0 109 0;
#X connect 118 0 117 0;
#X connect 118 1 117 1;
#X connect 119 0 121 0;
#X connect 120 0 119 0;
#X connect 121 0 123 0;
#X connect 123 0 124 0;
#X connect 124 0 149 0;
#X connect 124 1 122 0;
#X connect 125 0 140 1;
#X connect 126 0 138 1;
#X connect 127 0 125 0;
#X connect 127 0 133 0;
#X connect 127 1 126 0;
#X connect 127 1 132 0;
#X connect 129 0 134 0;
#X connect 129 0 136 0;
#X connect 130 0 135 0;
#X connect 134 0 129 1;
#X connect 135 0 129 0;
#X connect 136 0 132 1;
#X connect 136 0 133 1;
#X connect 136 0 152 1;
#X connect 138 0 137 0;
#X connect 140 0 139 0;
#X connect 141 0 142 0;
#X connect 142 0 138 0;
#X connect 142 0 140 0;
#X connect 143 0 125 1;
#X connect 143 1 126 1;
#X connect 144 0 146 0;
#X connect 144 0 145 0;
#X connect 145 0 147 0;
#X connect 146 0 1 0;
#X connect 147 0 119 0;
#X connect 149 0 127 0;
#X connect 149 1 143 0;
#X connect 149 2 150 0;
#X connect 149 2 152 0;
#X connect 149 3 122 0;
