#N canvas 585 500 579 247 12;
#X obj 5 8 inlet;
#X obj 5 73 unpack f f;
#X obj 153 76 unpack f f;
#X obj 5 40 route rms peak load;
#X obj 339 9 loadbang;
#X obj 5 140 pack f f;
#X obj 152 142 pack f f;
#X obj 5 193 f;
#X obj 152 194 f;
#X obj 240 9 inlet;
#X obj 152 40 print unknown_command;
#X obj 389 194 f;
#X obj 389 213 s \$1_load;
#X obj 5 107 tabwrite \$1_L;
#X obj 152 108 tabwrite \$1_R;
#X obj 152 161 s \$1_rec_R;
#X obj 5 159 s \$1_rec_L;
#X obj 5 212 s \$1_rec_L_rms;
#X obj 152 213 s \$1_rec_R_rms;
#X text 284 8 metro;
#X text 48 8 OSC target string;
#X obj 389 109 +;
#X obj 421 109 - 0.5;
#X obj 389 142 select 0;
#X msg 389 161 0;
#X msg 407 75 1;
#X obj 442 162 bng 15 250 50 0 empty empty empty 17 7 0 10 -262144
-1 -1;
#X obj 339 28 metro 500;
#X text 333 70 delay in s;
#X text 410 21 update rate in ms;
#X text 298 83 until 0 is sent;
#X text 410 36 for levels and loads;
#X obj 267 108 tabwrite \$1_load;
#X connect 0 0 3 0;
#X connect 1 0 5 0;
#X connect 1 0 7 1;
#X connect 1 0 13 0;
#X connect 1 1 6 0;
#X connect 1 1 8 1;
#X connect 1 1 14 0;
#X connect 2 0 5 1;
#X connect 2 1 6 1;
#X connect 3 0 1 0;
#X connect 3 1 2 0;
#X connect 3 2 11 1;
#X connect 3 2 25 0;
#X connect 3 3 10 0;
#X connect 4 0 27 0;
#X connect 5 0 16 0;
#X connect 6 0 15 0;
#X connect 7 0 17 0;
#X connect 8 0 18 0;
#X connect 9 0 13 1;
#X connect 9 0 14 1;
#X connect 9 0 32 1;
#X connect 11 0 12 0;
#X connect 21 0 22 0;
#X connect 21 0 23 0;
#X connect 22 0 21 1;
#X connect 23 0 24 0;
#X connect 23 1 26 0;
#X connect 24 0 11 0;
#X connect 25 0 21 1;
#X connect 26 0 11 0;
#X connect 27 0 7 0;
#X connect 27 0 8 0;
#X connect 27 0 21 0;
