#N canvas 405 486 498 253 12;
#X obj 5 8 inlet;
#X obj 5 73 unpack f f;
#X obj 15 176 pack f f;
#X obj 135 176 pack f f;
#X obj 333 9 inlet;
#X obj 245 40 print unknown_command;
#X obj 275 226 s \$1_load;
#X obj 21 146 tabwrite \$1_L;
#X obj 141 146 tabwrite \$1_R;
#X obj 135 195 s \$1_rec_R;
#X obj 15 195 s \$1_rec_L;
#X obj 5 226 s \$1_rec_L_rms;
#X obj 124 226 s \$1_rec_R_rms;
#X text 377 8 metro;
#X text 49 8 OSC target string;
#X obj 286 197 tabwrite \$1_load;
#X obj 125 117 max -100;
#X obj 5 117 max -100;
#X obj 5 98 reset_value -100;
#X obj 125 98 reset_value -100;
#X obj 246 73 unpack f f;
#X obj 366 117 max -100;
#X obj 246 117 max -100;
#X obj 246 98 reset_value -100;
#X obj 366 98 reset_value -100;
#X obj 275 168 reset_value 0;
#X floatatom 309 136 5 0 0 0 - - -;
#X obj 5 40 route rms peak load;
#X connect 0 0 27 0;
#X connect 1 0 18 0;
#X connect 1 1 19 0;
#X connect 2 0 10 0;
#X connect 3 0 9 0;
#X connect 4 0 7 1;
#X connect 4 0 8 1;
#X connect 4 0 15 1;
#X connect 4 0 19 1;
#X connect 4 0 25 1;
#X connect 4 0 23 1;
#X connect 4 0 24 1;
#X connect 4 0 18 1;
#X connect 16 0 3 0;
#X connect 16 0 8 0;
#X connect 16 0 12 0;
#X connect 17 0 7 0;
#X connect 17 0 2 0;
#X connect 17 0 11 0;
#X connect 18 0 17 0;
#X connect 19 0 16 0;
#X connect 20 0 23 0;
#X connect 20 1 24 0;
#X connect 21 0 3 1;
#X connect 22 0 2 1;
#X connect 23 0 22 0;
#X connect 24 0 21 0;
#X connect 25 0 6 0;
#X connect 26 0 25 0;
#X connect 27 0 1 0;
#X connect 27 1 20 0;
#X connect 27 2 25 0;
#X connect 27 3 5 0;
